<?xml version="1.0" standalone="no"?><!DOCTYPE svg PUBLIC "-//W3C//DTD SVG 1.1//EN" "http://www.w3.org/Graphics/SVG/1.1/DTD/svg11.dtd"><svg t="1639906499357" class="icon" viewBox="0 0 1024 1024" version="1.1" xmlns="http://www.w3.org/2000/svg" p-id="7830" xmlns:xlink="http://www.w3.org/1999/xlink" width="300" height="300"><defs><style type="text/css"></style></defs><path d="M943.2 269L335.9 133c-23.3-5.2-46.5 10.2-51.6 34.4l-32.1 153.7h583.6c27.2 0 49.4 23 49.4 51.2v338.9c7.5-6.2 13.1-15 15.3-25.4l76-363.3c5-24.2-10-48.3-33.3-53.5z" fill="#d81e06" p-id="7831"></path><path d="M810.9 347.5H124.6c-24.4 0-44.3 20.6-44.3 45.8v77.3h774.9v-77.3c0-25.2-20-45.8-44.3-45.8zM80.3 846.2c0 25.2 19.9 45.8 44.3 45.8h686.3c24.4 0 44.3-20.6 44.3-45.8v-315H80.3v315zM611 810.4l15.5-65.2c1-4.2 4.6-7.1 8.8-7.1h123.3c5.9 0 10.2 5.7 8.8 11.6l-15.5 65.2c-1 4.2-4.6 7.1-8.8 7.1H619.8c-5.9 0-10.2-5.7-8.8-11.6z m-351.3-16.5c0-4.9 3.9-9 8.7-9h81.8c4.8 0 8.7 4 8.7 9V813c0 4.9-3.9 9-8.7 9h-81.8c-4.8 0-8.7-4-8.7-9v-19.1zM122 797.4c0-6.9 5.4-12.4 12-12.4h75.1c6.6 0 12 5.6 12 12.4v12.2c0 6.9-5.4 12.4-12 12.4H134c-6.6 0-12-5.6-12-12.4v-12.2z" fill="#d81e06" p-id="7832"></path></svg>