<?xml version="1.0" standalone="no"?><!DOCTYPE svg PUBLIC "-//W3C//DTD SVG 1.1//EN" "http://www.w3.org/Graphics/SVG/1.1/DTD/svg11.dtd"><svg t="1639906418070" class="icon" viewBox="0 0 1024 1024" version="1.1" xmlns="http://www.w3.org/2000/svg" p-id="6776" xmlns:xlink="http://www.w3.org/1999/xlink" width="300" height="300"><defs><style type="text/css"></style></defs><path d="M928.514275 732.155119c-5.687536-28.081569-58.32436-42.74964-110.376876-42.74964-0.741897 0-1.465374 0.026606-2.216481 0.032746l0-22.790052 0-42.467207 0-42.460044c0-31.401174-55.786561-47.821145-110.897739-47.821145-55.116295 0-110.891599 16.419971-110.891599 47.821145l0 42.460044 0 42.467207 0 42.481534 0 42.465161c0 31.391964 55.775304 47.810912 110.891599 47.810912 0.74599 0 1.480724-0.010233 2.226714-0.016373l0 22.784936c0 31.391964 55.777351 47.827285 110.887506 47.827285 55.109132 0 110.906949-16.435321 110.906949-47.827285l0-42.4713 0-42.4713 0-5.077645L928.514275 732.154096 928.514275 732.155119zM818.137399 851.40406c-56.115042 0-91.917456-17.313318-91.917456-29.229718 0-3.215228 2.676969-6.822382 7.579629-10.369162 21.390169 10.385535 52.965306 15.725146 84.337827 15.725146 31.382754 0 62.969147-5.339612 84.36341-15.725146 4.903683 3.551896 7.575536 7.153934 7.575536 10.369162C910.076344 834.090742 874.26779 851.40406 818.137399 851.40406L818.137399 851.40406zM613.096513 751.58975c0-3.209088 2.682086-6.813173 7.579629-10.357905 21.394263 10.374278 52.976562 15.71389 84.34806 15.71389 0.74599 0 1.480724-0.021489 2.226714-0.021489l0 22.773679 0 1.073448c-0.751107 0-1.464351 0.047072-2.226714 0.047072C648.910183 780.818445 613.096513 763.511267 613.096513 751.58975L613.096513 751.58975zM892.174626 795.891745c-3.937682 1.793856-8.411577 3.497661-13.502525 5.050016-15.461133 4.691859-36.06131 7.979742-60.534701 7.979742-24.458041 0-45.063335-3.287883-60.519352-7.979742-4.607948-1.410116-8.749268-2.930749-12.402471-4.536316-0.38067-0.173962-0.719384-0.341784-1.094938-0.514723-4.124947-1.868557-7.579629-3.841491-10.32209-5.824659-0.633427-0.458441-1.239224-0.908696-1.802042-1.38351-3.637854-3.00852-5.638417-6.012947-5.740748-8.748245 0-0.079818-0.036839-0.157589-0.036839-0.231267 0-3.215228 2.676969-6.808056 7.564279-10.357905 5.445012 2.641153 11.538801 4.949732 18.121729 6.927783 4.264117 1.289366 8.723685 2.431376 13.353123 3.435239 1.850138 0.405229 3.726881 0.778736 5.627161 1.136893 6.056949 1.131777 12.33391 2.045589 18.738783 2.724041 2.994194 0.320295 6.025227 0.589424 9.05626 0.795109 6.442736 0.468674 12.948917 0.698918 19.457144 0.698918 6.512321 0 13.024641-0.230244 19.467377-0.698918 11.599176-0.805342 22.912849-2.384303 33.42732-4.656043 11.765975-2.561335 22.515806-6.019087 31.479969-10.363022 4.89345 3.549849 7.564279 7.143701 7.564279 10.357905 0 3.209088-2.676969 6.813173-7.575536 10.364045C899.754255 792.051277 896.305713 794.024212 892.174626 795.891745L892.174626 795.891745zM631.003348 725.316364c-4.131087-1.877767-7.586792-3.845585-10.327206-5.828752-4.897543-3.551896-7.579629-7.153934-7.579629-10.357905 0-3.215228 2.682086-6.813173 7.564279-10.365068 8.964162 4.351098 19.720134 7.806803 31.489178 10.365068 10.515494 2.282996 21.845541 3.834328 33.443693 4.66116 6.431479 0.456395 12.93459 0.687662 19.429515 0.687662 4.839215 0 9.688663-0.12075 14.501272-0.38374-3.100618 2.599198-5.665023 5.403057-7.655354 8.411577-2.967588 4.456498-4.620227 9.369392-4.620227 14.72026l0 0.010233 0 1.068332c-0.751107 0.005117-1.464351 0.041956-2.226714 0.041956-24.467251 0-45.067428-3.287883-60.528562-7.992021C639.403668 728.815047 634.93489 727.105103 631.003348 725.316364L631.003348 725.316364zM613.096513 666.648173c0-3.198855 2.682086-6.808056 7.568373-10.353812 8.960069 4.351098 19.704784 7.801686 31.473829 10.353812 10.505261 2.288113 21.829168 3.855818 33.42732 4.666276 6.427386 0.456395 12.944823 0.698918 19.457144 0.698918 6.512321 0 13.025665-0.242524 19.457144-0.698918 11.599176-0.810459 22.924105-2.378164 33.432437-4.666276 11.763928-2.552126 22.51069-6.002714 31.457456-10.353812 4.903683 3.545756 7.597025 7.154957 7.597025 10.353812 0 3.218298-2.683109 6.822382-7.580652 10.369162-2.741437 1.988284-6.196119 3.955078-10.32209 5.828752-3.937682 1.788739-8.411577 3.498684-13.497409 5.039783-15.46625 4.703115-36.07666 7.997138-60.544935 7.997138-24.478508 0-45.083801-3.294023-60.544935-7.997138-5.096065-1.541099-9.55461-3.251044-13.474896-5.039783-4.136204-1.873674-7.596002-3.841491-10.342556-5.828752C615.778598 673.470555 613.096513 669.866471 613.096513 666.648173L613.096513 666.648173zM613.096513 624.186082c0-3.208065 2.682086-6.807033 7.579629-10.357905 8.965186 4.355191 19.704784 7.812943 31.491225 10.357905 10.530844 2.289136 21.866007 3.851725 33.486672 4.666276 6.404873 0.463558 12.891611 0.694825 19.371186 0.694825 6.475482 0 12.95608-0.231267 19.37221-0.694825 11.619642-0.814552 22.955828-2.37714 33.490765-4.666276 11.776208-2.544963 22.538319-6.002714 31.485085-10.357905 4.903683 3.551896 7.597025 7.14984 7.597025 10.357905 0 3.203972-2.693342 6.813173-7.597025 10.365068-2.741437 1.9934-6.185886 3.949962-10.321066 5.833869-3.927449 1.777483-8.40646 3.492544-13.498432 5.039783-15.46011 4.703115-36.065404 7.990998-60.528562 7.990998-24.467251 0-45.067428-3.287883-60.528562-7.990998-5.090948-1.547239-9.565866-3.2623-13.491269-5.039783-4.136204-1.883907-7.586792-3.841491-10.333346-5.833869C615.778598 630.999255 613.096513 627.390054 613.096513 624.186082L613.096513 624.186082zM613.096513 624.186082" p-id="6777" fill="#d81e06"></path><path d="M563.16838 738.77591l-32.505321-30.729885c-9.115612-8.619308-23.551392-8.619308-32.677237 0l-98.827843 71.224158-98.827843-71.224158c-9.106402-8.619308-47.049572-8.619308-56.180534 0l-72.585155 68.642356L100.441597 731.661885 100.441597 242.201228c0-21.632693 17.958-39.243793 40.033785-39.243793 0.182149 0 0.345877-0.052189 0.538259-0.080841 0.222057 0.028653 0.442068 0.080841 0.659009 0.080841l0.110517 0c23.316032 0.055259 42.266639 17.638729 42.266639 39.243793 0 21.63781-19.023262 39.244816-42.377156 39.244816-13.001105 0-23.551392 10.346649-23.551392 23.081695 0 12.735046 10.550287 23.091928 23.551392 23.091928l506.863003-0.00614-0.453325 167.996179 47.083341 0 0.453325-171.113169c37.910425-9.888208 65.910129-43.00035 65.910129-82.302471 0-47.102784-40.143279-85.404112-89.447195-85.404112l-530.409279 0.00614c-0.206708 0-0.384763 0.028653-0.605797 0.028653-0.206708 0-0.399089-0.028653-0.591471-0.028653-48.048319 0-87.103824 38.301328-87.103824 85.404112L53.371558 741.480508c0 6.26775 2.589988 12.263301 7.186679 16.610306l94.669126 67.283406c9.102309 8.618285 23.566742 8.618285 32.682353 0l96.085382-68.633147 98.831936 71.224158c9.125845 8.619308 23.561625 8.619308 32.69361 0l98.813516-71.224158 48.832172 46.178739 0-64.143902L563.16838 738.77591zM221.123166 202.957435l450.964902-0.00614c23.353894 0 42.357713 17.6111 42.357713 39.243793 0 21.632693-19.002796 39.244816-42.357713 39.244816l-450.964902 0.00614c6.401804-11.777231 10.012028-25.118074 10.012028-39.244816C231.134171 228.064252 227.523947 214.706013 221.123166 202.957435L221.123166 202.957435zM221.123166 202.957435" p-id="6778" fill="#d81e06"></path><path d="M356.433922 507.362376l42.016953 0c0.298805 24.338315-2.455935 45.323255-8.261151 62.98859 53.020564 19.522636 97.482195 37.46938 133.395126 53.851489l-24.898063 40.60786c-39.814798-22.267143-81.486896-43.163055-124.995829-62.684668-23.704888 29.829376-63.668065 50.915623-119.890554 63.281255-7.80271-13.536294-17.405415-27.275203-28.811186-41.204447 34.111912-5.299703 61.247946-12.579503 81.407078-21.851681 20.147876-9.271154 33.607422-20.838607 40.35408-34.723849C353.508289 553.742706 356.732727 533.658276 356.433922 507.362376zM260.696464 590.95319l0-99.624998-3.900843 3.094478c-8.593725-10.396791-18.897396-21.390169-30.91101-32.967856 37.611619-26.678616 69.932746-56.114019 96.942913-88.282672l49.808406 0c-4.89959 7.257288-10.154267 14.414291-15.753799 21.48022l103.68957 0 0 32.372292-37.20946 32.664957L492.674862 459.68961l0 130.083707-41.409109 0L451.265754 495.006977 301.819047 495.006977l0 95.945189L260.696464 590.952166zM297.159934 459.687564l71.275323 0 34.811854-30.897707-75.17719 0C318.375118 439.186647 308.071448 449.493387 297.159934 459.687564z" p-id="6779" fill="#d81e06"></path></svg>